<?xml version="1.0" encoding="UTF-8" standalone="no"?>
<!-- Created with Inkscape (http://www.inkscape.org/) -->
<svg
   xmlns:dc="http://purl.org/dc/elements/1.1/"
   xmlns:cc="http://web.resource.org/cc/"
   xmlns:rdf="http://www.w3.org/1999/02/22-rdf-syntax-ns#"
   xmlns:svg="http://www.w3.org/2000/svg"
   xmlns="http://www.w3.org/2000/svg"
   xmlns:sodipodi="http://sodipodi.sourceforge.net/DTD/sodipodi-0.dtd"
   xmlns:inkscape="http://www.inkscape.org/namespaces/inkscape"
   width="744.09448819"
   height="1052.3622047"
   id="svg2"
   sodipodi:version="0.32"
   inkscape:version="0.44.1"
   sodipodi:docbase="/Users/falko/NetFight/netfight/svg2lvl/levels"
   sodipodi:docname="level1.svg">
  <defs
     id="defs4" />
  <sodipodi:namedview
     id="base"
     pagecolor="#ffffff"
     bordercolor="#666666"
     borderopacity="1.0"
     gridtolerance="10000"
     guidetolerance="10"
     objecttolerance="10"
     inkscape:pageopacity="0.0"
     inkscape:pageshadow="2"
     inkscape:zoom="0.5"
     inkscape:cx="372.8723"
     inkscape:cy="428.3896"
     inkscape:document-units="px"
     inkscape:current-layer="layer1"
     inkscape:window-width="1022"
     inkscape:window-height="577"
     inkscape:window-x="67"
     inkscape:window-y="95" />
  <metadata
     id="metadata7">
    <rdf:RDF>
      <cc:Work
         rdf:about="">
        <dc:format>image/svg+xml</dc:format>
        <dc:type
           rdf:resource="http://purl.org/dc/dcmitype/StillImage" />
      </cc:Work>
    </rdf:RDF>
  </metadata>
  <g
     inkscape:label="Layer 1"
     id="layer1"
     inkscape:groupmode="layer">
    <path
       style="fill:none;fill-rule:evenodd;stroke:#5699af;stroke-width:1px;stroke-linecap:butt;stroke-linejoin:miter;stroke-opacity:1"
       d="M 185.86807,104.8391 L 535.38085,106.8594 L 670.74129,232.11832 L 672.76159,862.4535 L 478.81231,981.6515 L 42.426407,977.61089 L 40.406102,630.11842 L 171.72593,630.11842 L 171.72593,553.34683 L 26.263966,557.38744 L 28.284271,240.19954 L 185.86807,104.8391 z "
       id="path1963" />
    <path
       style="fill:#070bff;fill-rule:evenodd;stroke:#40ef00;stroke-width:1px;stroke-linecap:butt;stroke-linejoin:miter;stroke-opacity:1;fill-opacity:1"
       d="M 179.80715,290.70716 L 210.11173,250.30106 L 503.05597,248.28076 L 541.44176,290.70716 L 541.44176,351.31632 L 507.09658,397.78333 L 224.25386,397.78333 L 179.80715,357.37723 L 179.80715,290.70716 z "
       id="path1965" />
    <path
       style="fill:none;fill-rule:evenodd;stroke:#fb0000;stroke-width:1px;stroke-linecap:butt;stroke-linejoin:miter;stroke-opacity:1"
       d="M 222.23356,397.78333 L 359.61431,397.78333 L 383.85797,474.55493 L 387.89858,682.64635 L 339.41126,721.03215 L 260.61936,719.01184 L 313.14729,615.97628 L 284.86302,492.73767 L 222.23356,397.78333 z "
       id="path1967" />
    <path
       style="fill:none;fill-rule:evenodd;stroke:#ffb700;stroke-width:1px;stroke-linecap:butt;stroke-linejoin:miter;stroke-opacity:1"
       d="M 197.9899,828.10832 L 444.46712,820.0271 L 496.99505,725.07276 L 577.80726,729.11337 L 503.05597,870.53472 L 185.86807,886.69717 L 197.9899,828.10832 z "
       id="path1969" />
    <rect
       style="fill:#c80000;fill-opacity:1;stroke:#320000;stroke-width:1.56130743;stroke-opacity:1"
       y="441.89651"
       x="105.33652"
       height="38.438694"
       width="38.438694"
       id="rect2860" />
    <rect
       style="fill:#c80000;fill-opacity:1;stroke:#320000;stroke-width:1.17098057;stroke-opacity:1"
       y="759.79785"
       x="102.61597"
       height="28.82902"
       width="28.82902"
       id="rect2862" />
    <rect
       style="fill:#c80000;fill-opacity:1;stroke:#320000;stroke-width:0.39032686;stroke-opacity:1"
       y="439.99628"
       x="574.97705"
       height="9.6096735"
       width="9.6096735"
       id="rect2864" />
    <rect
       style="fill:#c80000;fill-opacity:1;stroke:#320000;stroke-width:0.78065372;stroke-opacity:1"
       y="634.24219"
       x="540.82697"
       height="19.219347"
       width="19.219345"
       id="rect2866" />
    <rect
       style="fill:#00c800;fill-opacity:1;stroke:#320000;stroke-width:1.17098057;stroke-opacity:1"
       y="508.2699"
       x="468.29117"
       height="28.82902"
       width="28.82902"
       id="rect2868" />
    <rect
       style="fill:#00c800;fill-opacity:1;stroke:#320000;stroke-width:0.9758172;stroke-opacity:1"
       y="756.61902"
       x="399.50323"
       height="24.024183"
       width="24.024181"
       id="rect2870" />
    <rect
       style="fill:#00c800;fill-opacity:1;stroke:#320000;stroke-width:0.78065372;stroke-opacity:1"
       y="682.72955"
       x="161.00967"
       height="19.219347"
       width="19.219345"
       id="rect2872" />
    <rect
       style="fill:#00c800;fill-opacity:1;stroke:#320000;stroke-width:0.58549029;stroke-opacity:1"
       y="308.82477"
       x="94.242012"
       height="14.41451"
       width="14.41451"
       id="rect2874" />
    <rect
       style="fill:#00c800;fill-opacity:1;stroke:#320000;stroke-width:0.39032686;stroke-opacity:1"
       y="173.31599"
       x="322.4389"
       height="9.6096735"
       width="9.6096735"
       id="rect2876" />
    <rect
       style="fill:#0000c8;fill-opacity:1;stroke:#320000;stroke-width:1.36614394;stroke-opacity:1"
       y="898.3371"
       x="96.652641"
       height="33.633858"
       width="33.633858"
       id="rect2878" />
    <rect
       style="fill:#0000c8;fill-opacity:1;stroke:#320000;stroke-width:0.9758172;stroke-opacity:1"
       y="619.23828"
       x="446.98041"
       height="24.024183"
       width="24.024181"
       id="rect2880" />
    <rect
       style="fill:#0000c8;fill-opacity:1;stroke:#320000;stroke-width:0.78065372;stroke-opacity:1"
       y="527.16602"
       x="579.21283"
       height="19.219347"
       width="19.219345"
       id="rect2882" />
    <rect
       style="fill:#0000c8;fill-opacity:1;stroke:#320000;stroke-width:1.17098057;stroke-opacity:1"
       y="812.32581"
       x="592.53998"
       height="28.82902"
       width="28.82902"
       id="rect2884" />
    <rect
       style="fill:#0000c8;fill-opacity:1;stroke:#320000;stroke-width:0.58549029;stroke-opacity:1"
       y="176.49481"
       x="488.20151"
       height="14.41451"
       width="14.41451"
       id="rect2886" />
    <rect
       style="fill:#0000c8;fill-opacity:1;stroke:#320000;stroke-width:0.39032686;stroke-opacity:1"
       y="186.448"
       x="169.90588"
       height="9.6096735"
       width="9.6096735"
       id="rect2888" />
    <path
       style="fill:#d8cc00;fill-opacity:1;stroke:red;stroke-opacity:1"
       d="M260.65078 856.61853L239.18542 873.48417L217.72007 856.61853L239.18542 839.75289L260.65078 856.61853L260.65078 856.61853"
       id="path1888" />
    <path
       style="fill:#d8cc00;fill-opacity:1;stroke:red;stroke-opacity:1"
       d="M 329.1355,852.01883 L 307.67014,868.88447 L 286.20479,852.01883 L 307.67014,835.15319 L 329.1355,852.01883 L 329.1355,852.01883"
       id="path1985" />
    <path
       style="fill:#d8cc00;fill-opacity:1;stroke:red;stroke-opacity:1"
       d="M 391.48726,848.95235 L 370.0219,865.81799 L 348.55655,848.95235 L 370.0219,832.08671 L 391.48726,848.95235 L 391.48726,848.95235"
       id="path1987" />
    <path
       style="fill:#d8cc00;fill-opacity:1;stroke:red;stroke-opacity:1"
       d="M 460.99413,848.95235 L 439.52877,865.81799 L 418.06342,848.95235 L 439.52877,832.08671 L 460.99413,848.95235 L 460.99413,848.95235"
       id="path1989" />
    <path
       style="fill:#d8cc00;fill-opacity:1;stroke:red;stroke-opacity:1"
       d="M 510.05781,819.30971 L 488.59245,836.17535 L 467.1271,819.30971 L 488.59245,802.44407 L 510.05781,819.30971 L 510.05781,819.30971"
       id="path1991" />
    <path
       style="fill:#d8cc00;fill-opacity:1;stroke:red;stroke-opacity:1"
       d="M 538.67829,767.17955 L 517.21293,784.04519 L 495.74758,767.17955 L 517.21293,750.31391 L 538.67829,767.17955 L 538.67829,767.17955"
       id="path1993" />
    <path
       style="fill:#00ff94;fill-opacity:1;fill-rule:nonzero;stroke:none;stroke-width:0.02253952;stroke-miterlimit:4;stroke-opacity:1"
       d="M 316.08873,435.79869 C 316.08873,441.35184 313.92724,446.41602 310.37994,450.23533 C 306.33718,454.58809 300.49446,457.32393 294,457.32393 C 287.33788,457.32393 281.36158,454.44501 277.31057,449.895 C 273.94744,446.1176 271.91127,441.18846 271.91127,435.79869 C 271.91127,429.72912 274.49347,424.2437 278.64504,420.32943 C 282.62067,416.58103 288.03548,414.27345 294,414.27345 C 300.43345,414.27345 306.22734,416.95814 310.26553,421.23981 C 313.88071,425.07298 316.08873,430.18608 316.08873,435.79869 z "
       id="path1894"
       sodipodi:nodetypes="csssssssc" />
    <path
       style="fill:#00ff94;fill-opacity:1;fill-rule:nonzero;stroke:none;stroke-width:0.02253952;stroke-miterlimit:4;stroke-opacity:1"
       d="M 366.08873,486.36218 C 366.08873,491.91533 363.92724,496.97951 360.37994,500.79882 C 356.33718,505.15158 350.49446,507.88742 344,507.88742 C 337.33788,507.88742 331.36158,505.0085 327.31057,500.45849 C 323.94744,496.68109 321.91127,491.75195 321.91127,486.36218 C 321.91127,480.29261 324.49347,474.80719 328.64504,470.89292 C 332.62067,467.14452 338.03548,464.83694 344,464.83694 C 350.43345,464.83694 356.22734,467.52163 360.26553,471.8033 C 363.88071,475.63647 366.08873,480.74957 366.08873,486.36218 z "
       id="path2783"
       sodipodi:nodetypes="csssssssc" />
    <path
       style="fill:#00ff94;fill-opacity:1;fill-rule:nonzero;stroke:none;stroke-width:0.02253952;stroke-miterlimit:4;stroke-opacity:1"
       d="M 360.08873,558.36218 C 360.08873,563.91533 357.92724,568.97951 354.37994,572.79882 C 350.33718,577.15158 344.49446,579.88742 338,579.88742 C 331.33788,579.88742 325.36158,577.0085 321.31057,572.45849 C 317.94744,568.68109 315.91127,563.75195 315.91127,558.36218 C 315.91127,552.29261 318.49347,546.80719 322.64504,542.89292 C 326.62067,539.14452 332.03548,536.83694 338,536.83694 C 344.43345,536.83694 350.22734,539.52163 354.26553,543.8033 C 357.88071,547.63647 360.08873,552.74957 360.08873,558.36218 z "
       id="path2785"
       sodipodi:nodetypes="csssssssc" />
    <path
       style="fill:#00ff94;fill-opacity:1;fill-rule:nonzero;stroke:none;stroke-width:0.02253952;stroke-miterlimit:4;stroke-opacity:1"
       d="M 372.08873,628.36218 C 372.08873,633.91533 369.92724,638.97951 366.37994,642.79882 C 362.33718,647.15158 356.49446,649.88742 350,649.88742 C 343.33788,649.88742 337.36158,647.0085 333.31057,642.45849 C 329.94744,638.68109 327.91127,633.75195 327.91127,628.36218 C 327.91127,622.29261 330.49347,616.80719 334.64504,612.89292 C 338.62067,609.14452 344.03548,606.83694 350,606.83694 C 356.43345,606.83694 362.22734,609.52163 366.26553,613.8033 C 369.88071,617.63647 372.08873,622.74957 372.08873,628.36218 z "
       id="path2787"
       sodipodi:nodetypes="csssssssc" />
    <path
       style="fill:#00ff94;fill-opacity:1;fill-rule:nonzero;stroke:none;stroke-width:0.02253952;stroke-miterlimit:4;stroke-opacity:1"
       d="M 336.08873,688.36218 C 336.08873,693.91533 333.92724,698.97951 330.37994,702.79882 C 326.33718,707.15158 320.49446,709.88742 314,709.88742 C 307.33788,709.88742 301.36158,707.0085 297.31057,702.45849 C 293.94744,698.68109 291.91127,693.75195 291.91127,688.36218 C 291.91127,682.29261 294.49347,676.80719 298.64504,672.89292 C 302.62067,669.14452 308.03548,666.83694 314,666.83694 C 320.43345,666.83694 326.22734,669.52163 330.26553,673.8033 C 333.88071,677.63647 336.08873,682.74957 336.08873,688.36218 z "
       id="path2789"
       sodipodi:nodetypes="csssssssc" />
    <rect
       style="fill:#c80000;fill-opacity:1;stroke:#320000;stroke-width:0.58549029;stroke-opacity:1"
       y="585.65491"
       x="518.29272"
       height="14.41451"
       width="14.41451"
       id="rect1899" />
    <rect
       style="fill:#0000c8;fill-opacity:1;stroke:#320000;stroke-width:0.39032686;stroke-opacity:1"
       y="897.55737"
       x="527.19519"
       height="9.6096735"
       width="9.6096735"
       id="rect1901" />
    <rect
       style="fill:#0000c8;fill-opacity:1;stroke:#320000;stroke-width:0.39032686;stroke-opacity:1"
       y="447.55737"
       x="435.19519"
       height="9.6096735"
       width="9.6096735"
       id="rect1903" />
  </g>
</svg>
