<?xml version="1.0" encoding="UTF-8" standalone="no"?>
<!-- Created with Inkscape (http://www.inkscape.org/) -->
<svg
   xmlns:dc="http://purl.org/dc/elements/1.1/"
   xmlns:cc="http://web.resource.org/cc/"
   xmlns:rdf="http://www.w3.org/1999/02/22-rdf-syntax-ns#"
   xmlns:svg="http://www.w3.org/2000/svg"
   xmlns="http://www.w3.org/2000/svg"
   xmlns:sodipodi="http://sodipodi.sourceforge.net/DTD/sodipodi-0.dtd"
   xmlns:inkscape="http://www.inkscape.org/namespaces/inkscape"
   width="700"
   height="1000"
   id="svg2"
   sodipodi:version="0.32"
   inkscape:version="0.44.1"
   sodipodi:docbase="/Users/falko/NetFight/netfight/svg2lvl/shapes"
   sodipodi:docname="weapon_mine.svg"
   version="1.0">
  <defs
     id="defs4" />
  <sodipodi:namedview
     id="base"
     pagecolor="#ffffff"
     bordercolor="#666666"
     borderopacity="1.0"
     gridtolerance="10000"
     guidetolerance="10"
     objecttolerance="10"
     inkscape:pageopacity="0.0"
     inkscape:pageshadow="2"
     inkscape:zoom="39.217851"
     inkscape:cx="-0.15215554"
     inkscape:cy="1000.0567"
     inkscape:document-units="px"
     inkscape:current-layer="layer1"
     inkscape:window-width="1053"
     inkscape:window-height="723"
     inkscape:window-x="13"
     inkscape:window-y="71"
     height="1000px"
     width="700px"
     showguides="true"
     inkscape:guide-bbox="true" />
  <metadata
     id="metadata7">
    <rdf:RDF>
      <cc:Work
         rdf:about="">
        <dc:format>image/svg+xml</dc:format>
        <dc:type
           rdf:resource="http://purl.org/dc/dcmitype/StillImage" />
      </cc:Work>
    </rdf:RDF>
  </metadata>
  <g
     inkscape:label="Layer 1"
     id="layer1"
     inkscape:groupmode="layer">
    <path
       style="fill:none;fill-opacity:1;stroke:black;stroke-width:0.14440022;stroke-opacity:1"
       d="M -4.9243035,-4.9771833 L 4.9774435,-4.9771833 L 4.9774435,4.9244833 L -4.9243035,4.9244833 L -4.9243035,-4.9771833 L -4.9243035,-4.9771833"
       id="rect1872" />
    <path
       style="fill:white;fill-opacity:1;fill-rule:nonzero;stroke:black;stroke-width:0.2;stroke-miterlimit:4;stroke-dasharray:none;stroke-opacity:1"
       d="M -0.00468,-3.854475 L -0.62968,-2.573225 C -1.4680003,-2.3924868 -2.1483281,-1.8553637 -2.56718,-1.135725 L -4.00468,-0.916975 L -2.94218,0.114275 C -2.9495268,0.19997657 -2.97343,0.27668084 -2.97343,0.364275 C -2.97343,1.1312091 -2.6963605,1.8326967 -2.22343,2.364275 L -2.44218,3.801775 L -1.19218,3.145525 C -0.82544985,3.3047626 -0.39850591,3.364275 0.02657,3.364275 C 0.46591667,3.364275 0.86892475,3.2837617 1.24532,3.114275 L 2.52657,3.770525 L 2.27657,2.364275 C 2.7495005,1.8326966 3.02657,1.1312091 3.02657,0.364275 C 3.02657,0.26587377 3.0045678,0.17901419 2.99532,0.083025 L 4.05782,-0.948225 L 2.62032,-1.166975 C 2.1998309,-1.8748972 1.4809266,-2.3944193 0.65157,-2.573225 L 0.62032,-2.573225 L -0.00468,-3.854475 z "
       id="path2827" />
  </g>
</svg>
